<svg width="243" height="240" viewBox="0 0 243 240" fill="none" xmlns="http://www.w3.org/2000/svg">
<g opacity="0.3" clip-path="url(#clip0_258_73)">
<path d="M128.405 21.6579L127.866 22.2862C125.523 24.9245 123.397 27.7494 121.509 30.733C117.637 36.7907 114.802 43.4562 113.119 50.4538C112.893 51.3089 112.754 51.9546 112.684 52.3211C112.615 52.6876 112.684 52.6004 112.684 52.6527C111.749 57.1057 111.277 61.6444 111.277 66.1954V173.787C111.276 176.527 111.026 179.261 110.53 181.955C115.118 180.575 119.453 178.46 123.367 175.689C126.841 173.201 129.743 169.993 131.879 166.283V133.124V110.593V67.0506C131.847 56.6171 135.316 46.4773 141.727 38.2693C148.138 30.0613 157.116 24.2644 167.211 21.815L167.698 21.7103L168.827 21.4834L169.417 21.3787C170.613 21.1583 171.819 21.001 173.03 20.9075C173.76 20.9075 174.524 20.7679 175.289 20.7504H176.47H177.946C178.207 20.7504 178.467 20.7504 178.711 20.7504C179.388 20.7504 180.031 20.7504 180.691 20.8726H180.882C185.671 21.2773 190.363 22.4559 194.779 24.363C199.895 26.5667 204.569 29.6893 208.571 33.5777C212.932 37.8123 216.399 42.886 218.765 48.4959C221.132 54.1059 222.35 60.1373 222.346 66.2304C222.346 87.295 209.735 105.079 190.922 110.244C190.332 110.401 189.724 110.558 189.185 110.681C186.023 111.41 182.789 111.773 179.544 111.763H130.02C118.642 111.763 126.546 121.012 126.546 132.443H180.031C216.127 132.164 242.983 102.583 242.983 66.2478C242.992 57.5369 241.285 48.9104 237.961 40.8652C234.637 32.8199 229.761 25.5152 223.614 19.3717L222.52 18.3246C222.155 17.9581 221.773 17.6265 221.408 17.2949C220.088 16.0733 218.75 14.9098 217.395 13.8045C217.031 13.5079 216.648 13.2286 216.266 12.9494C215.467 12.356 214.668 11.7801 213.886 11.2042L212.896 10.541C211.767 9.79059 210.621 9.0925 209.422 8.46423C208.971 8.20245 208.536 7.95812 208.085 7.73125C207.042 7.14951 206 6.62594 204.958 6.16055L203.95 5.6719C192.344 0.451454 179.481 -1.28206 166.916 0.680622L165.874 0.83771C164.658 1.04713 163.424 1.29146 162.226 1.57069L161.809 1.6754C160.489 1.98954 159.221 2.33857 157.97 2.70506" fill="#8CC5D4"/>
<path d="M167.142 21.8151C167.142 21.8151 137.837 18.5341 112.598 52.6877C112.598 52.6877 119.963 11.7801 161.879 1.7976C161.879 1.7976 196.151 -7.92315 223.614 19.3543L208.641 33.5603C208.641 33.5603 194.258 16.6667 168.115 21.6056L167.142 21.8151Z" fill="url(#paint0_linear_258_73)"/>
<path d="M190.071 110.873C196.915 110.873 220.262 108.848 241.715 79.8257C241.715 79.8257 235.392 120.82 193.476 130.803C193.476 130.803 192.833 130.995 191.635 131.239L190.071 110.873Z" fill="url(#paint1_linear_258_73)"/>
<path d="M194.292 61.5881H181.056V48.2897C181.101 47.4403 180.973 46.5906 180.68 45.7925C180.387 44.9943 179.935 44.2645 179.353 43.6473C178.77 43.0302 178.069 42.5388 177.291 42.2029C176.513 41.867 175.675 41.6938 174.828 41.6938C173.982 41.6938 173.144 41.867 172.366 42.2029C171.588 42.5388 170.887 43.0302 170.304 43.6473C169.721 44.2645 169.27 44.9943 168.977 45.7925C168.684 46.5906 168.556 47.4403 168.601 48.2897V61.5881H155.364C154.519 61.5432 153.673 61.6718 152.879 61.9659C152.084 62.2601 151.358 62.7137 150.744 63.2991C150.129 63.8845 149.64 64.5894 149.306 65.3709C148.972 66.1523 148.799 66.994 148.799 67.8446C148.799 68.6952 148.972 69.5369 149.306 70.3184C149.64 71.0999 150.129 71.8048 150.744 72.3902C151.358 72.9756 152.084 73.4292 152.879 73.7234C153.673 74.0175 154.519 74.1461 155.364 74.1012H168.601V87.4345C168.556 88.284 168.684 89.1336 168.977 89.9318C169.27 90.7299 169.721 91.4597 170.304 92.0768C170.887 92.694 171.588 93.1855 172.366 93.5213C173.144 93.8572 173.982 94.0304 174.828 94.0304C175.675 94.0304 176.513 93.8572 177.291 93.5213C178.069 93.1855 178.77 92.694 179.353 92.0768C179.935 91.4597 180.387 90.7299 180.68 89.9318C180.973 89.1336 181.101 88.284 181.056 87.4345V74.1361H194.292C195.887 74.0515 197.389 73.3554 198.488 72.1913C199.587 71.0273 200.199 69.484 200.199 67.8796C200.199 66.2752 199.587 64.7319 198.488 63.5678C197.389 62.4038 195.887 61.7076 194.292 61.623V61.5881Z" fill="#FC8D71"/>
<path d="M123.298 110.611V175.689C119.384 178.465 115.049 180.587 110.461 181.972C110.956 179.531 111.206 177.046 111.208 174.555V132.548H59.2345C56.2888 132.539 53.4664 131.359 51.3835 129.266C49.3006 127.174 48.1263 124.338 48.1172 121.379C48.1172 118.523 49.2464 115.784 51.2563 113.765C53.2663 111.745 55.9924 110.611 58.835 110.611H123.298Z" fill="url(#paint2_linear_258_73)"/>
<path d="M131.757 174.537C131.538 191.801 124.626 208.297 112.491 220.521C100.357 232.745 83.9552 239.733 66.7731 240C30.0513 240.489 -0.0175781 209.651 -0.0175781 172.757V101.553C13.1842 88.3071 20.5842 72.3909 20.5842 66.0034V172.949C20.5842 197.941 40.2479 218.918 65.1229 219.319C74.9053 219.484 84.479 216.47 92.4173 210.724C100.356 204.978 106.234 196.809 109.175 187.434C113.49 186.289 117.654 184.631 121.578 182.496C122.174 182.182 122.754 181.839 123.315 181.466C126.447 179.577 129.29 177.244 131.757 174.537Z" fill="url(#paint3_linear_258_73)"/>
<path d="M118.191 25.9858L117.861 26.492C114.77 31.2479 112.191 36.3199 110.166 41.6228L109.436 43.752C109.274 44.2057 109.135 44.6595 109.019 45.1132C108.597 46.4849 108.243 47.877 107.96 49.2843C107.96 49.2843 107.803 48.848 107.439 48.0626C107.317 47.7834 107.178 47.5216 107.056 47.2599C103.789 40.5653 99.0986 34.6732 93.3161 29.9998L92.8992 29.6857C87.8086 25.7038 81.8587 22.978 75.5284 21.7276H75.2852C67.7106 20.393 59.9368 20.7445 52.5121 22.7572C42.6875 25.743 34.2012 32.0665 28.5056 40.6455L27.7761 41.7799C27.5213 42.1871 27.2781 42.5885 27.0465 42.9841C26.8902 43.2284 26.7686 43.4728 26.6122 43.7171L26.0911 44.6595C24.8468 47.0273 23.7897 49.4899 22.9296 52.0242L22.5648 53.1935C22.5605 53.2574 22.5605 53.3216 22.5648 53.3855C22.478 53.6473 22.3564 54.0836 22.2174 54.6246C22.2174 54.834 22.1132 55.0609 22.0611 55.2877C22.009 55.5146 22.0611 55.5146 22.0611 55.6368C22.0611 55.759 21.9395 56.1429 21.8874 56.4222C21.8353 56.7014 21.7137 57.2773 21.6268 57.7311C21.4878 58.4466 21.3662 59.2145 21.262 59.9998C20.976 61.8999 20.8424 63.82 20.8625 65.7415V65.8637C20.8625 72.2511 13.4625 88.1674 0.260742 101.413V62.7048C0.38359 60.0177 0.720493 57.3449 1.26824 54.7118C1.44195 53.7345 1.66777 52.6874 1.9457 51.5879C4.32109 41.4429 8.90715 31.9537 15.3733 23.8043V23.6996C24.1538 12.9414 36.1757 5.34057 49.6285 2.0417H49.9412C50.8445 1.81483 51.6783 1.60539 52.6163 1.43087C56.8831 0.531085 61.2325 0.086512 65.5923 0.10453H66.982C74.3482 0.287442 81.6378 1.65436 88.5738 4.15338C89.1471 4.36281 89.755 4.58968 90.3109 4.83401C97.1418 7.50854 103.447 11.3788 108.932 16.2651C112.411 19.1039 115.521 22.3696 118.191 25.9858Z" fill="url(#paint4_linear_258_73)"/>
</g>
<defs>
<linearGradient id="paint0_linear_258_73" x1="207.876" y1="48.6213" x2="146.117" y2="24.6627" gradientUnits="userSpaceOnUse">
<stop stop-color="#8CC5D4" stop-opacity="0"/>
<stop offset="0.11" stop-color="#8DC6D5" stop-opacity="0.07"/>
<stop offset="0.32" stop-color="#91C9D7" stop-opacity="0.26"/>
<stop offset="0.62" stop-color="#97CEDB" stop-opacity="0.57"/>
<stop offset="0.99" stop-color="#A0D4E0" stop-opacity="0.98"/>
<stop offset="1" stop-color="#A0D4E0"/>
</linearGradient>
<linearGradient id="paint1_linear_258_73" x1="184.53" y1="118.744" x2="219.089" y2="105.223" gradientUnits="userSpaceOnUse">
<stop stop-color="#A9DAE5" stop-opacity="0"/>
<stop offset="0.17" stop-color="#A8D9E4" stop-opacity="0.15"/>
<stop offset="0.56" stop-color="#A4D7E2" stop-opacity="0.53"/>
<stop offset="1" stop-color="#A0D4E0"/>
</linearGradient>
<linearGradient id="paint2_linear_258_73" x1="48.1172" y1="146.283" x2="123.298" y2="146.283" gradientUnits="userSpaceOnUse">
<stop stop-color="#0E72A8"/>
<stop offset="1" stop-color="#0E72A8"/>
</linearGradient>
<linearGradient id="paint3_linear_258_73" x1="-0.000207332" y1="153.002" x2="131.775" y2="153.002" gradientUnits="userSpaceOnUse">
<stop stop-color="#0E72A8"/>
<stop offset="1" stop-color="#0E72A8"/>
</linearGradient>
<linearGradient id="paint4_linear_258_73" x1="61.2843" y1="34.3279" x2="35.1312" y2="112.44" gradientUnits="userSpaceOnUse">
<stop stop-color="#0E72A8"/>
<stop offset="1" stop-color="#1D88CC"/>
</linearGradient>
<clipPath id="clip0_258_73">
<rect width="243" height="240" fill="white"/>
</clipPath>
</defs>
</svg>
