<svg width="26" height="27" viewBox="0 0 26 27" fill="none" xmlns="http://www.w3.org/2000/svg">
<g opacity="0.4">
<path fill-rule="evenodd" clip-rule="evenodd" d="M8.52445 2.87334H17.559C20.8889 2.87334 22.743 4.79376 22.743 8.08437V19.2293C22.743 22.5739 20.8889 24.4511 17.559 24.4511H8.52445C5.24738 24.4511 3.33936 22.5739 3.33936 19.2293V8.08437C3.33936 4.79376 5.24738 2.87334 8.52445 2.87334ZM8.8155 7.90096V7.89017H12.0376C12.5022 7.89017 12.8795 8.26778 12.8795 8.73063C12.8795 9.20642 12.5022 9.58403 12.0376 9.58403H8.8155C8.35089 9.58403 7.97468 9.20642 7.97468 8.74249C7.97468 8.27857 8.35089 7.90096 8.8155 7.90096ZM8.8155 14.4606H17.2669C17.7304 14.4606 18.1077 14.083 18.1077 13.6191C18.1077 13.1552 17.7304 12.7765 17.2669 12.7765H8.8155C8.35089 12.7765 7.97468 13.1552 7.97468 13.6191C7.97468 14.083 8.35089 14.4606 8.8155 14.4606ZM8.8155 19.3911H17.2669C17.697 19.348 18.0215 18.9801 18.0215 18.5496C18.0215 18.1073 17.697 17.7404 17.2669 17.6973H8.8155C8.49211 17.6649 8.17949 17.816 8.00702 18.0965C7.83454 18.3662 7.83454 18.7222 8.00702 19.0027C8.17949 19.2725 8.49211 19.4343 8.8155 19.3911Z" fill="#06152B"/>
</g>
</svg>
