<svg width="58" height="58" viewBox="0 0 58 58" fill="none" xmlns="http://www.w3.org/2000/svg">
<circle opacity="0.5" cx="29" cy="29" r="29" fill="#B6C5CD"/>
<path d="M16.7961 34.5055C16.9031 34.6052 17.0287 34.6725 17.1608 34.7079C17.46 34.7881 17.7927 34.7043 18.0185 34.4617L23.9623 28.0761C24.2822 27.7325 24.7977 27.6413 25.2159 27.8543L29.6328 30.1035C30.6264 30.6093 31.8218 30.4758 32.6789 29.7633L38.2674 25.1183L37.8476 29.8724C37.8101 30.2971 38.0862 30.6772 38.4843 30.7838C38.5322 30.7967 38.582 30.8056 38.6331 30.8101C39.1089 30.8521 39.5287 30.5004 39.5708 30.0246L40.1843 23.0774C40.2044 22.8489 40.133 22.6217 39.9856 22.4458C39.8384 22.27 39.6272 22.1598 39.3987 22.1397L32.7173 21.5497C32.2415 21.5077 31.8216 21.8594 31.7796 22.3352C31.7376 22.811 32.0894 23.2308 32.5651 23.2729L37.2804 23.6893L31.5732 28.4329C31.248 28.7032 30.7946 28.7539 30.4178 28.562L26.0009 26.3128C24.8985 25.7514 23.5392 25.9917 22.6962 26.8975L16.7523 33.2831C16.4268 33.6327 16.4464 34.18 16.7961 34.5055Z" fill="#0E72B7"/>
</svg>
