<svg width="512" height="512" viewBox="0 0 512 512" fill="none" xmlns="http://www.w3.org/2000/svg">
<path d="M256 320C291.346 320 320 291.346 320 256C320 220.654 291.346 192 256 192C220.654 192 192 220.654 192 256C192 291.346 220.654 320 256 320Z" fill="#7C8593"/>
<path d="M394.82 141.18C351.1 111.2 304.31 96 255.76 96C212.07 96 169.48 109 129.17 134.48C88.52 160.23 48.67 207 16 256C42.42 300 78.56 345.24 116.2 371.18C159.38 400.92 206.33 416 255.76 416C304.76 416 351.61 400.93 395.06 371.21C433.31 345 469.71 299.82 496 256C469.62 212.57 433.1 167.44 394.82 141.18ZM256 352C237.013 352 218.452 346.37 202.665 335.821C186.878 325.272 174.574 310.279 167.308 292.738C160.042 275.196 158.14 255.894 161.845 237.271C165.549 218.649 174.692 201.544 188.118 188.118C201.544 174.692 218.649 165.549 237.271 161.845C255.894 158.14 275.196 160.042 292.738 167.308C310.279 174.574 325.272 186.878 335.821 202.665C346.37 218.452 352 237.013 352 256C351.971 281.452 341.847 305.853 323.85 323.85C305.853 341.847 281.452 351.971 256 352Z" fill="#7C8593"/>
</svg>
