<svg width="64" height="65" viewBox="0 0 64 65" fill="none" xmlns="http://www.w3.org/2000/svg">
<path fill-rule="evenodd" clip-rule="evenodd" d="M34.1212 33.8698H36.8891C37.3088 33.8698 37.6385 33.4256 37.6385 32.89C37.6385 32.3413 37.3088 31.9101 36.8891 31.9101H34.1212C33.7016 31.9101 33.3718 32.3413 33.3718 32.89C33.3718 33.4256 33.7016 33.8698 34.1212 33.8698ZM40.1766 27.0775C40.7861 27.0775 41.1858 27.3519 41.5855 27.9528C41.9852 28.5538 42.0551 29.4161 41.9652 30.1987L41.0159 38.7691C40.8361 40.4166 39.7569 41.6303 38.4879 41.6303H27.5864C26.2574 41.6303 25.1583 40.299 25.0484 38.5745L24.1291 24.3326L22.6203 23.9929C22.2206 23.9014 21.9408 23.3919 22.0107 22.8693C22.0807 22.335 22.4704 21.9809 22.8801 22.0606L25.2632 22.5297C25.6029 22.6093 25.8527 22.9739 25.8827 23.4181L26.0726 26.3446C26.1025 26.7639 26.3623 27.0775 26.6821 27.0775H40.1766ZM27.4263 43.6952C26.5869 43.6952 25.9075 44.5836 25.9075 45.681C25.9075 46.7654 26.5869 47.6538 27.4263 47.6538C28.2556 47.6538 28.9351 46.7654 28.9351 45.681C28.9351 44.5836 28.2556 43.6952 27.4263 43.6952ZM38.6675 43.6952C37.8282 43.6952 37.1487 44.5836 37.1487 45.681C37.1487 46.7654 37.8282 47.6538 38.6675 47.6538C39.4969 47.6538 40.1763 46.7654 40.1763 45.681C40.1763 44.5836 39.4969 43.6952 38.6675 43.6952Z" fill="#FFC327"/>
<rect opacity="0.1" y="0.142212" width="64" height="64" rx="32" fill="#FC8D71"/>
</svg>
