<svg width="109" height="108" viewBox="0 0 109 108" fill="none" xmlns="http://www.w3.org/2000/svg">
<g clip-path="url(#clip0_21_29)">
<path d="M57.5974 9.74607L57.3558 10.0288C56.3049 11.216 55.3511 12.4872 54.504 13.8298C52.7675 16.5558 51.4955 19.5553 50.7406 22.7042C50.6393 23.089 50.5769 23.3796 50.5458 23.5445C50.5146 23.7094 50.5458 23.6702 50.5458 23.6937C50.1261 25.6975 49.9146 27.74 49.9146 29.7879V78.2042C49.9142 79.4371 49.8021 80.6673 49.5796 81.8796C51.6373 81.2589 53.5818 80.3068 55.3378 79.0602C56.8958 77.9403 58.1977 76.4969 59.1558 74.8272V59.9058V49.767V30.1728C59.1413 25.4777 60.6976 20.9148 63.5733 17.2212C66.449 13.5276 70.4763 10.919 75.0044 9.81675L75.2225 9.76963L75.729 9.66755L75.9939 9.62042C76.5301 9.52121 77.0711 9.45044 77.6146 9.40838C77.9419 9.40838 78.2847 9.34555 78.6276 9.33769H79.1574H79.8197C79.9366 9.33769 80.0535 9.33769 80.1625 9.33769C80.4664 9.33769 80.7547 9.3377 81.0508 9.39267H81.1365C83.2847 9.57478 85.3896 10.1052 87.37 10.9634C89.6652 11.955 91.7617 13.3602 93.5567 15.1099C95.5127 17.0156 97.0679 19.2987 98.1294 21.8232C99.191 24.3477 99.7373 27.0618 99.7356 29.8037C99.7356 39.2827 94.0788 47.2853 85.6402 49.61C85.3753 49.6806 85.1026 49.7513 84.861 49.8063C83.4427 50.1345 81.9918 50.2978 80.5366 50.2932H58.322C53.2184 50.2932 56.7637 54.4555 56.7637 59.5995H80.7547C96.9462 59.4738 108.992 46.1623 108.992 29.8115C108.997 25.8916 108.231 22.0097 106.74 18.3893C105.249 14.769 103.062 11.4818 100.304 8.71728L99.8136 8.24607C99.6499 8.08115 99.4785 7.93194 99.3149 7.78272C98.7227 7.23299 98.1227 6.70942 97.515 6.21204C97.3513 6.07853 97.1799 5.95289 97.0085 5.82723C96.6501 5.56022 96.2916 5.30105 95.941 5.04189L95.4969 4.74346C94.9904 4.40576 94.4762 4.09163 93.9385 3.8089C93.7359 3.6911 93.5411 3.58116 93.3385 3.47906C92.871 3.21728 92.4035 2.98167 91.936 2.77225L91.4841 2.55235C86.2779 0.203154 80.5083 -0.576929 74.8719 0.30628L74.4044 0.37697C73.859 0.47121 73.3057 0.581157 72.7681 0.706811L72.5811 0.75393C71.9889 0.895291 71.4201 1.05236 70.8591 1.21728" fill="#8CC5D4"/>
<path d="M74.9732 9.81675C74.9732 9.81675 61.8284 8.34031 50.5068 23.7094C50.5068 23.7094 53.8106 5.30104 72.6123 0.808895C72.6123 0.808895 87.9856 -3.56544 100.304 8.70943L93.5879 15.1021C93.5879 15.1021 87.1363 7.5 75.4095 9.72251L74.9732 9.81675Z" fill="url(#paint0_linear_21_29)"/>
<path d="M85.2583 49.8927C88.3283 49.8927 98.8005 48.9817 108.423 35.9215C108.423 35.9215 105.587 54.3691 86.7855 58.8613C86.7855 58.8613 86.4972 58.9477 85.9596 59.0576L85.2583 49.8927Z" fill="url(#paint1_linear_21_29)"/>
<path d="M87.1515 27.7146H81.2141V21.7303C81.2341 21.3481 81.1767 20.9657 81.0454 20.6066C80.9141 20.2474 80.7116 19.919 80.4502 19.6413C80.1888 19.3636 79.8741 19.1424 79.5252 18.9913C79.1763 18.8401 78.8005 18.7622 78.4207 18.7622C78.041 18.7622 77.6652 18.8401 77.3162 18.9913C76.9673 19.1424 76.6526 19.3636 76.3912 19.6413C76.1299 19.919 75.9274 20.2474 75.796 20.6066C75.6647 20.9657 75.6073 21.3481 75.6274 21.7303V27.7146H69.69C69.3107 27.6944 68.9314 27.7523 68.575 27.8846C68.2187 28.017 67.8928 28.2211 67.6173 28.4846C67.3418 28.748 67.1223 29.0652 66.9724 29.4169C66.8224 29.7685 66.7451 30.1473 66.7451 30.5301C66.7451 30.9128 66.8224 31.2916 66.9724 31.6433C67.1223 31.9949 67.3418 32.3122 67.6173 32.5756C67.8928 32.839 68.2187 33.0431 68.575 33.1755C68.9314 33.3079 69.3107 33.3657 69.69 33.3455H75.6274V39.3455C75.6073 39.7278 75.6647 40.1101 75.796 40.4693C75.9274 40.8284 76.1299 41.1568 76.3912 41.4345C76.6526 41.7123 76.9673 41.9334 77.3162 42.0846C77.6652 42.2357 78.041 42.3136 78.4207 42.3136C78.8005 42.3136 79.1763 42.2357 79.5252 42.0846C79.8741 41.9334 80.1888 41.7123 80.4502 41.4345C80.7116 41.1568 80.9141 40.8284 81.0454 40.4693C81.1767 40.1101 81.2341 39.7278 81.2141 39.3455V33.3612H87.1515C87.8668 33.3231 88.5404 33.0099 89.0334 32.4861C89.5263 31.9623 89.8012 31.2678 89.8012 30.5458C89.8012 29.8238 89.5263 29.1293 89.0334 28.6055C88.5404 28.0817 87.8668 27.7684 87.1515 27.7303V27.7146Z" fill="#FC8D71"/>
<path d="M55.3066 49.7749V79.0602C53.551 80.3095 51.6065 81.2642 49.5484 81.8875C49.7705 80.789 49.8827 79.6708 49.8834 78.5498V59.6466H26.5703C25.249 59.6425 23.9829 59.1116 23.0486 58.1699C22.1143 57.2282 21.5876 55.9522 21.5835 54.6205C21.5835 53.3353 22.09 52.1029 22.9916 51.1941C23.8932 50.2854 25.116 49.7749 26.3911 49.7749H55.3066Z" fill="url(#paint2_linear_21_29)"/>
<path d="M59.1011 78.5419C59.0026 86.3102 55.9023 93.7337 50.4591 99.2345C45.0159 104.735 37.659 107.88 29.9518 108C13.4799 108.22 -0.0078125 94.3429 -0.0078125 77.7408V45.6989C5.91398 39.7382 9.23331 32.5759 9.23331 29.7015V77.8272C9.23331 89.0733 18.0537 98.5131 29.2116 98.6937C33.5996 98.768 37.894 97.4113 41.4548 94.8257C45.0156 92.2402 47.6522 88.5641 48.9717 84.3455C50.9072 83.8302 52.7748 83.0841 54.535 82.123C54.8025 81.9821 55.0625 81.8275 55.3142 81.6597C56.719 80.8097 57.9944 79.7596 59.1011 78.5419Z" fill="url(#paint3_linear_21_29)"/>
<path d="M53.0155 11.6937L52.8674 11.9215C51.4811 14.0616 50.324 16.344 49.4156 18.7304L49.0884 19.6885C49.0157 19.8927 48.9533 20.0968 48.9014 20.301C48.7119 20.9183 48.5533 21.5447 48.4261 22.178C48.4261 22.178 48.356 21.9817 48.1923 21.6283C48.1378 21.5026 48.0754 21.3848 48.0209 21.267C46.5554 18.2545 44.4514 15.603 41.8576 13.5L41.6706 13.3586C39.3871 11.5668 36.7183 10.3402 33.8787 9.77748H33.7696C30.372 9.17692 26.885 9.33509 23.5545 10.2408C19.1476 11.5844 15.341 14.43 12.7862 18.2906L12.459 18.801C12.3447 18.9843 12.2356 19.1649 12.1317 19.3429C12.0616 19.4529 12.007 19.5628 11.9369 19.6728L11.7032 20.0968C11.145 21.1624 10.6708 22.2705 10.285 23.411L10.1214 23.9372C10.1195 23.9659 10.1195 23.9948 10.1214 24.0235C10.0825 24.1413 10.0279 24.3377 9.96558 24.5811C9.96558 24.6754 9.91883 24.7775 9.89545 24.8796C9.87208 24.9816 9.89545 24.9817 9.89545 25.0366C9.89545 25.0916 9.84091 25.2644 9.81753 25.39C9.79416 25.5157 9.73961 25.7749 9.70065 25.979C9.63832 26.301 9.58378 26.6466 9.53703 27C9.40874 27.855 9.34881 28.7191 9.35782 29.5838V29.6387C9.35782 32.5131 6.03849 39.6754 0.116699 45.6361V28.2173C0.171804 27.0081 0.322925 25.8053 0.568621 24.6204C0.64654 24.1806 0.747833 23.7094 0.872502 23.2146C1.93801 18.6494 3.99513 14.3793 6.89559 10.712V10.6649C10.8342 5.82371 16.2267 2.40333 22.2611 0.91884H22.4013C22.8065 0.816746 23.1805 0.7225 23.6013 0.643966C25.5152 0.239062 27.4662 0.0390037 29.4218 0.0471119H30.0451C33.3494 0.129422 36.6192 0.744534 39.7304 1.86909C39.9875 1.96334 40.2602 2.06543 40.5096 2.17538C43.5736 3.37892 46.4017 5.12054 48.8624 7.31936C50.4227 8.59683 51.8179 10.0664 53.0155 11.6937Z" fill="url(#paint4_linear_21_29)"/>
</g>
<defs>
<linearGradient id="paint0_linear_21_29" x1="93.2451" y1="21.8796" x2="65.5191" y2="11.1581" gradientUnits="userSpaceOnUse">
<stop stop-color="#8CC5D4" stop-opacity="0"/>
<stop offset="0.11" stop-color="#8DC6D5" stop-opacity="0.07"/>
<stop offset="0.32" stop-color="#91C9D7" stop-opacity="0.26"/>
<stop offset="0.62" stop-color="#97CEDB" stop-opacity="0.57"/>
<stop offset="0.99" stop-color="#A0D4E0" stop-opacity="0.98"/>
<stop offset="1" stop-color="#A0D4E0"/>
</linearGradient>
<linearGradient id="paint1_linear_21_29" x1="82.7727" y1="53.4346" x2="98.2875" y2="47.3842" gradientUnits="userSpaceOnUse">
<stop stop-color="#A9DAE5" stop-opacity="0"/>
<stop offset="0.17" stop-color="#A8D9E4" stop-opacity="0.15"/>
<stop offset="0.56" stop-color="#A4D7E2" stop-opacity="0.53"/>
<stop offset="1" stop-color="#A0D4E0"/>
</linearGradient>
<linearGradient id="paint2_linear_21_29" x1="21.5835" y1="65.8273" x2="55.3066" y2="65.8273" gradientUnits="userSpaceOnUse">
<stop stop-color="#0E72A8"/>
<stop offset="1" stop-color="#0E72A8"/>
</linearGradient>
<linearGradient id="paint3_linear_21_29" x1="-2.06631e-05" y1="68.8508" x2="59.1089" y2="68.8508" gradientUnits="userSpaceOnUse">
<stop stop-color="#0E72A8"/>
<stop offset="1" stop-color="#0E72A8"/>
</linearGradient>
<linearGradient id="paint4_linear_21_29" x1="27.4894" y1="15.4476" x2="15.6904" y2="50.5752" gradientUnits="userSpaceOnUse">
<stop stop-color="#0E72A8"/>
<stop offset="1" stop-color="#1D88CC"/>
</linearGradient>
<clipPath id="clip0_21_29">
<rect width="109" height="108" fill="white"/>
</clipPath>
</defs>
</svg>
