<svg width="20" height="19" viewBox="0 0 20 19" fill="none" xmlns="http://www.w3.org/2000/svg">
<g opacity="0.4">
<path fill-rule="evenodd" clip-rule="evenodd" d="M8.0813 8.36335C7.68829 8.36335 7.37753 8.66903 7.37753 9.05563C7.37753 9.43325 7.68829 9.74792 8.0813 9.74792H13.5652V14.0455C13.5652 16.2482 11.7464 18.0464 9.49798 18.0464H5.04687C2.8076 18.0464 0.98877 16.2572 0.98877 14.0545V4.06577C0.98877 1.85404 2.81674 0.0648804 5.05601 0.0648804H9.51626C11.7464 0.0648804 13.5652 1.85404 13.5652 4.05677V8.36335H8.0813ZM16.8263 5.94502L19.4494 8.56134C19.5842 8.6962 19.656 8.86702 19.656 9.05583C19.656 9.23565 19.5842 9.41546 19.4494 9.54133L16.8263 12.1577C16.6916 12.2925 16.5119 12.3644 16.3412 12.3644C16.1616 12.3644 15.9819 12.2925 15.8472 12.1577C15.5777 11.8879 15.5777 11.4474 15.8472 11.1777L17.2845 9.74812H13.5654V8.36354H17.2845L15.8472 6.934C15.5777 6.66428 15.5777 6.22373 15.8472 5.95401C16.1167 5.67529 16.5568 5.67529 16.8263 5.94502Z" fill="#06152B"/>
</g>
</svg>
