<svg width="10" height="10" viewBox="0 0 10 10" fill="none" xmlns="http://www.w3.org/2000/svg">
<path fill-rule="evenodd" clip-rule="evenodd" d="M8.45297 2.18461C8.61506 2.18461 8.75 2.31919 8.75 2.49044V2.64877C8.75 2.81585 8.61506 2.9546 8.45297 2.9546H1.54744C1.38494 2.9546 1.25 2.81585 1.25 2.64877V2.49044C1.25 2.31919 1.38494 2.18461 1.54744 2.18461H2.76232C3.0091 2.18461 3.22388 2.0092 3.27939 1.7617L3.34301 1.47753C3.44189 1.09045 3.76729 0.833374 4.1397 0.833374H5.8603C6.22866 0.833374 6.5577 1.09045 6.65293 1.45712L6.72101 1.76128C6.77612 2.0092 6.9909 2.18461 7.23809 2.18461H8.45297ZM7.83576 7.97255C7.9626 6.79047 8.18466 3.98217 8.18466 3.95384C8.19277 3.868 8.16481 3.78675 8.10929 3.72134C8.04972 3.66009 7.97435 3.62384 7.89128 3.62384H2.11189C2.02841 3.62384 1.94898 3.66009 1.89387 3.72134C1.83795 3.78675 1.81039 3.868 1.81445 3.95384C1.81519 3.95904 1.82316 4.05796 1.83648 4.22334C1.89566 4.95802 2.06049 7.00427 2.167 7.97255C2.24237 8.68587 2.71041 9.1342 3.38836 9.15045C3.91151 9.16253 4.45047 9.1667 5.00158 9.1667C5.52068 9.1667 6.04789 9.16253 6.58725 9.15045C7.2887 9.13837 7.75634 8.69795 7.83576 7.97255Z" fill="#FC8D71"/>
</svg>
