<svg width="14" height="14" viewBox="0 0 14 14" fill="none" xmlns="http://www.w3.org/2000/svg">
<path opacity="0.5" fill-rule="evenodd" clip-rule="evenodd" d="M0.93042 6.12218C0.93042 2.96192 3.28821 0.400024 6.19669 0.400024C7.59339 0.400024 8.93289 1.00289 9.92051 2.076C10.9081 3.14912 11.463 4.60457 11.463 6.12218C11.463 9.28243 9.10517 11.8443 6.19669 11.8443C3.28821 11.8443 0.93042 9.28243 0.93042 6.12218ZM11.3758 10.7313L12.9443 12.0923H12.9715C13.2888 12.4371 13.2888 12.9961 12.9715 13.3409C12.6542 13.6857 12.1397 13.6857 11.8224 13.3409L10.5208 11.7373C10.3977 11.604 10.3286 11.423 10.3286 11.2343C10.3286 11.0455 10.3977 10.8645 10.5208 10.7313C10.7581 10.4779 11.1385 10.4779 11.3758 10.7313Z" fill="#06152B"/>
</svg>
